<svg xmlns="http://www.w3.org/2000/svg" viewBox="0 0 200 200" width="200" height="200">
  <!-- White circle background with 5px orange stroke -->
  <circle cx="100" cy="100" r="95" fill="white" stroke="#CC5500" stroke-width="5"/>

  <!-- 'e' letter in main blue, scaled 1.68x (20% larger than 1.4) and centered -->
  <path d="M 50 60 Q 30 60 30 80 Q 30 100 50 100 L 85 100 L 85 85 L 50 85 Q 45 85 45 80 Q 45 75 50 75 L 85 75 L 85 60 Z M 85 100 L 85 140 Q 85 160 65 160 Q 45 160 45 140 L 60 140 Q 60 145 65 145 Q 70 145 70 140 L 70 100 Z"
        fill="#6B7C98"
        transform="translate(-5, 5) scale(1.68)"/>

  <!-- 'g' letter in main blue, scaled 1.68x (20% larger than 1.4) and centered -->
  <path d="M 95 85 Q 95 65 115 65 Q 135 65 135 85 L 135 130 Q 135 150 115 150 Q 95 150 95 130 L 95 85 M 110 80 Q 105 80 105 85 L 105 100 L 120 100 L 120 85 Q 120 80 115 80 Z M 105 115 L 105 130 Q 105 135 115 135 Q 120 135 120 130 L 120 115 L 105 115 Z"
        fill="#6B7C98"
        transform="translate(12, 15) scale(1.68)"/>

  <!-- Square bullet in rust color -->
  <rect x="163" y="85" width="18" height="18" fill="#AB978C" rx="1"/>
</svg>
