<svg xmlns="http://www.w3.org/2000/svg" viewBox="0 0 720 720" width="720" height="720">
  <!-- Letter 'e' -->
  <path d="M 81 10
           C 81 10, 270 10, 270 10
           C 330 10, 340 70, 340 155
           C 340 155, 340 160, 340 160
           C 340 160, 80 160, 80 160
           C 80 160, 80 240, 80 240
           C 80 240, 340 240, 340 240
           C 340 330, 330 380, 270 380
           C 270 380, 81 380, 81 380
           L 81 10
           M 160 80
           L 160 90
           C 160 90, 160 120, 160 120
           C 160 120, 270 120, 270 120
           C 270 100, 270 80, 260 80
           C 260 80, 160 80, 160 80
           Z"
        fill="#9FA3A8"
        transform="scale(1.8)"/>

  <!-- Letter 'g' -->
  <path d="M 360 180
           C 360 90, 400 50, 480 50
           C 550 50, 590 80, 590 140
           L 590 380
           C 590 450, 550 500, 480 500
           C 400 500, 360 460, 360 380
           C 360 380, 360 180, 360 180
           M 440 130
           C 440 130, 440 400, 440 400
           C 440 420, 450 430, 480 430
           C 510 430, 520 420, 520 400
           C 520 400, 520 180, 520 180
           C 520 160, 510 130, 480 130
           C 450 130, 440 140, 440 130
           Z
           M 440 540
           C 440 540, 440 610, 440 610
           C 440 650, 460 680, 520 680
           C 520 680, 660 680, 660 680
           L 660 610
           L 520 610
           C 520 600, 520 590, 520 580
           L 520 540
           L 440 540
           Z"
        fill="#9FA3A8"
        transform="scale(1.8) translate(-30, 0)"/>

  <!-- Letter 'r' -->
  <path d="M 580 180
           C 580 180, 580 380, 580 380
           L 660 380
           L 660 180
           C 660 140, 670 130, 700 130
           C 700 130, 740 130, 740 130
           L 740 50
           L 700 50
           C 620 50, 580 90, 580 180
           Z"
        fill="#9FA3A8"
        transform="scale(1.8) translate(-80, 0)"/>

  <!-- Red square dot -->
  <rect x="663" y="182" width="51" height="51" fill="#C4374B"/>
</svg>
