<svg width="728" height="720" viewBox="0 0 728 720" fill="none" xmlns="http://www.w3.org/2000/svg">
  <!-- Letter 'e' -->
  <path d="M85.5 163.5C177.5 163.5 177.5 164 177.5 231.5C177.5 299 177 299 85 299L85.5 231.5M85.5 163.5V556.5M177.5 163.5C177.5 90 177.5 90 85.5 90V163.5M85.5 163.5H272.5M85.5 299H272.5M85.5 299V372M85.5 372V556.5M85.5 372H341.5" fill="#9FA3A8"/>

  <!-- Letter 'g' -->
  <path d="M303 231.5C303 164 302.5 163.5 394.5 163.5V556.5C394.5 624 395 624.5 303 624.5C211 624.5 210.5 624 210.5 556.5V360M303 231.5C303 299 302.5 299.5 210.5 299.5V360M303 231.5C303.5 231.5 303.5 231 303.5 163.5C303.5 96 303 95.5 395 95.5C487 95.5 487.5 96 487.5 163.5V360M487.5 360H667M487.5 360V231.5M487.5 231.5H667" fill="#9FA3A8"/>

  <!-- Letter 'r' -->
  <path d="M529 90V556.5M529 299.5V372M529 299.5H620.5M529 299.5V163.5M529 163.5V90M529 163.5C529 163.5 529 164 620.5 164C712.5 164 713 163.5 713 96C713 28.5 712.5 28 620.5 28C528.5 28 528.5 28.5 528.5 96V163.5" fill="#9FA3A8"/>

  <!-- Red square/dot -->
  <path d="M663 181.5H714.5V233H663V181.5Z" fill="#C23941"/>
</svg>
